<?xml version="1.0" encoding="UTF-8" standalone="no"?>
<svg
   id="svg8"
   version="1.1"
   viewBox="0 0 110.82924 112.00283"
   height="112.00283mm"
   width="110.82924mm"
   sodipodi:docname="uncalled4_purple.svg"
   inkscape:version="1.3 (1:1.3+202307231459+0e150ed6c4)"
   inkscape:export-filename="/home/skovaka/Pictures/uncalled/uncalled_logos/uncalled4_small.png"
   inkscape:export-xdpi="55.703968"
   inkscape:export-ydpi="55.703968"
   xmlns:inkscape="http://www.inkscape.org/namespaces/inkscape"
   xmlns:sodipodi="http://sodipodi.sourceforge.net/DTD/sodipodi-0.dtd"
   xmlns="http://www.w3.org/2000/svg"
   xmlns:svg="http://www.w3.org/2000/svg"
   xmlns:rdf="http://www.w3.org/1999/02/22-rdf-syntax-ns#"
   xmlns:cc="http://creativecommons.org/ns#"
   xmlns:dc="http://purl.org/dc/elements/1.1/">
  <sodipodi:namedview
     pagecolor="#ffffff"
     bordercolor="#666666"
     borderopacity="1"
     objecttolerance="10"
     gridtolerance="10"
     guidetolerance="10"
     inkscape:pageopacity="0"
     inkscape:pageshadow="2"
     inkscape:window-width="1876"
     inkscape:window-height="1016"
     id="namedview32"
     showgrid="false"
     inkscape:zoom="1.1757901"
     inkscape:cx="151.81281"
     inkscape:cy="235.58627"
     inkscape:window-x="44"
     inkscape:window-y="27"
     inkscape:window-maximized="1"
     inkscape:current-layer="g1013"
     showguides="false"
     inkscape:showpageshadow="2"
     inkscape:pagecheckerboard="0"
     inkscape:deskcolor="#d1d1d1"
     inkscape:document-units="mm" />
  <defs
     id="defs2" />
  <metadata
     id="metadata5">
    <rdf:RDF>
      <cc:Work
         rdf:about="">
        <dc:format>image/svg+xml</dc:format>
        <dc:type
           rdf:resource="http://purl.org/dc/dcmitype/StillImage" />
      </cc:Work>
    </rdf:RDF>
  </metadata>
  <g
     transform="translate(-6.972123,-179.07176)"
     id="layer1">
    <g
       transform="translate(-29.633346,126.3159)"
       id="g1013">
      <g
         id="g20"
         style="fill:#8623c7;fill-opacity:1">
        <g
           id="g4924"
           style="fill:#8623c7;fill-opacity:1;stroke:none;stroke-opacity:1">
          <g
             aria-label="U"
             style="font-size:10.5833px;font-family:'Liberation Sans';-inkscape-font-specification:'Liberation Sans';letter-spacing:0px;word-spacing:0px;fill:#8623c7;fill-opacity:1;stroke:none;stroke-width:1.019;stroke-opacity:1"
             id="text868">
            <g
               id="path1063"
               style="fill:#8623c7;fill-opacity:1;stroke:none;stroke-opacity:1">
              <path
                 style="color:#000000;-inkscape-font-specification:'Liberation Sans Italic';fill:#8623c7;fill-opacity:1;stroke:none;stroke-opacity:1;-inkscape-stroke:none"
                 d="m 62.865613,87.343318 c -1.186177,1.187612 -2.48755,1.79011 -3.95756,1.796271 -1.471428,1.09e-4 -2.921459,-0.598214 -4.321312,-1.845518 -0.293246,-0.261291 -0.625681,-0.593848 -0.995403,-0.997429 -0.371335,-0.415584 -0.658762,-0.757509 -0.862619,-1.025358 -2.178246,-2.750154 -4.32083,-5.540271 -6.420951,-8.371643 0.562373,-0.613352 1.134229,-1.222372 1.71577,-1.826259 2.220401,3.133256 4.497529,6.216856 6.822747,9.252446 0.477955,0.627565 0.903467,1.11152 1.27026,1.451494 0.891877,0.826665 1.816102,1.225555 2.759151,1.218467 0.950732,-0.01256 1.822789,-0.430819 2.642713,-1.248647 1.977759,-1.972704 2.039123,-4.429195 0.09427,-7.559306 -2.065947,-3.349629 -4.050937,-6.75523 -5.945403,-10.218621 0.660738,-0.545537 1.331873,-1.082746 2.013604,-1.610837 1.801703,3.565965 3.703605,7.071511 5.695788,10.518525 1.226616,2.140689 1.78236,4.093058 1.699893,5.82095 -0.08897,1.733246 -0.812233,3.245054 -2.21095,4.645463 -1e-6,10e-7 -1e-6,10e-7 -2e-6,2e-6 z"
                 id="path5" />
              <path
                 style="color:#000000;-inkscape-font-specification:'Liberation Sans Italic';fill:#8623c7;fill-opacity:1;stroke:none;stroke-opacity:1;-inkscape-stroke:none"
                 d="m 57.857422,65.578125 -0.488281,0.376953 c -0.685996,0.531395 -1.360667,1.072266 -2.025391,1.621094 l -0.326172,0.267578 0.203125,0.369141 c 1.898889,3.471476 3.888586,6.885341 5.958984,10.242187 v 0.002 c 0.939626,1.512264 1.365035,2.819116 1.347657,3.9375 -0.01738,1.118384 -0.453263,2.078651 -1.369141,2.992188 -0.75293,0.751006 -1.482415,1.088457 -2.287109,1.099609 -0.796887,0.006 -1.585101,-0.319113 -2.408203,-1.082031 -0.334077,-0.30965 -0.744799,-0.774669 -1.210938,-1.386719 v -0.002 H 55.25 c -2.321577,-3.030836 -4.593983,-6.108487 -6.810547,-9.236328 l -0.355469,-0.501953 -0.427734,0.443359 c -0.584502,0.606961 -1.159501,1.217649 -1.724609,1.833984 l -0.283204,0.310547 0.25,0.337891 c 2.103488,2.835911 4.250225,5.63061 6.431641,8.384766 0.216629,0.284107 0.50671,0.630094 0.880859,1.048828 l 0.002,0.002 0.002,0.002 c 0.378308,0.412953 0.722435,0.7563 1.033203,1.033203 1.469905,1.309722 3.050587,1.974729 4.660156,1.974609 h 0.002 c 1.60796,-0.0067 3.059445,-0.68683 4.316406,-1.945312 1.466221,-1.467994 2.263936,-3.119239 2.359375,-4.978516 v -0.002 c 0.08853,-1.85502 -0.50753,-3.900575 -1.767578,-6.099609 v -0.002 C 61.830766,73.18202 59.931993,69.686014 58.134766,66.128906 Z m -0.333985,1.558594 c 1.722057,3.382793 3.519246,6.720929 5.41211,9.996093 1.192474,2.081638 1.709191,3.9407 1.632812,5.541016 -0.08293,1.606366 -0.731831,2.976315 -2.0625,4.308594 -1.114836,1.116185 -2.266438,1.642343 -3.597656,1.648437 -1.333284,9.9e-5 -2.652624,-0.531913 -3.982422,-1.716797 -0.274601,-0.244678 -0.595731,-0.565018 -0.955078,-0.957031 l -0.0039,-0.0039 C 53.60321,85.54604 53.324591,85.212303 53.134766,84.962891 l -0.0039,-0.0039 -0.002,-0.0039 c -2.08708,-2.635053 -4.137123,-5.312193 -6.152344,-8.021484 0.330111,-0.357084 0.663379,-0.712591 1,-1.066407 2.109944,2.964158 4.261687,5.89134 6.464844,8.767579 0.489771,0.643079 0.928616,1.145327 1.328125,1.515625 0.960651,0.890409 2.020166,1.363655 3.109375,1.355468 h 0.002 0.002 c 1.096008,-0.01448 2.109778,-0.514387 2.996094,-1.398437 1.061879,-1.059165 1.646439,-2.311703 1.667969,-3.697266 0.02152,-1.384866 -0.495771,-2.873335 -1.5,-4.490234 l -0.002,-0.002 c -1.98681,-3.221401 -3.888932,-6.499966 -5.716797,-9.826172 0.394426,-0.322263 0.793498,-0.639028 1.195312,-0.955078 z"
                 id="path6" />
            </g>
          </g>
          <g
             id="text872"
             style="fill:#8623c7;fill-opacity:1;stroke:none;stroke-opacity:1">
            <path
               style="color:#000000;-inkscape-font-specification:'Liberation Sans';fill:#8623c7;fill-opacity:1;stroke:none;stroke-opacity:1;-inkscape-stroke:none"
               d="m 57.059185,67.141789 c 2.095454,5.110411 4.468697,10.06635 7.064371,14.87671 0.01082,-0.02051 0.01552,-0.04176 0.01021,-0.0839 -0.0044,-0.0352 -0.01504,-0.07091 -0.0174,-0.105919 -0.0052,-0.07776 -0.01168,-0.33075 0.01996,-0.403006 0.0435,-0.09935 0.118007,-0.177435 0.177323,-0.265798 0.178231,0.03091 -0.08461,-0.0056 0,0 0.542761,-0.215212 0.503173,-0.233361 -0.116727,-0.50841 -0.236229,-0.325236 -0.07185,-0.474932 -0.08792,-0.496674 0.541028,-0.261 -0.27716,-0.731631 -0.360375,-0.840984 -0.0016,-0.0022 -0.004,-0.0043 -0.0057,-0.0066 -0.01864,-0.02531 -0.0319,-0.05433 -0.04681,-0.08172 -0.0063,-0.01137 -0.01381,-0.02239 -0.01622,-0.03466 -6.91e-4,-0.0035 0.01254,0.0065 0.0104,0.0034 -0.02211,-0.03294 -0.04803,-0.06374 -0.07196,-0.09545 -0.01447,-0.02098 -0.02891,-0.04176 -0.04322,-0.06273 -0.04699,-0.008 -0.094,-0.01588 -0.141034,-0.02375 -0.03018,-0.08514 -0.06321,-0.170032 -0.08987,-0.25593 -0.0045,-0.01463 -0.0016,-0.02934 -0.0031,-0.04412 -0.0019,-0.01843 -0.0043,-0.03684 -0.0066,-0.05528 -0.025,-0.05938 -0.05152,-0.118037 -0.09917,-0.165666 -0.05535,-0.09197 -0.172187,-0.273475 -0.211231,-0.381943 -0.03458,-0.09608 -0.08407,-0.195617 -0.08193,-0.2929 0.0035,-0.161135 0.05031,-0.266576 0.12728,-0.356099 -0.03187,-0.193346 -0.01857,-0.272304 -0.0072,-0.464436 0.0065,-0.109845 0.02433,-0.196917 0.0467,-0.272515 -0.912487,-1.571306 -1.806377,-3.154717 -2.68074,-4.750409 -0.408679,-0.772879 -1.014831,-1.811627 -1.814916,-3.126698 1.178704,0.63103 2.341473,1.280607 3.486819,1.949319 3.898202,2.27597 7.594587,4.773592 11.030516,7.51602 0.625449,-0.404737 1.257073,-0.79245 1.895178,-1.161914 -1.217972,-2.995953 -2.354357,-6.034304 -3.403729,-9.116085 -1.009378,-2.965329 -1.928815,-5.973931 -2.753239,-9.020471 -0.0088,0.0029 -0.01735,0.0058 -0.02611,0.0088 -0.562475,0.287524 -1.119147,0.584243 -1.66974,0.889861 -0.156351,0.08711 -0.31224,0.174722 -0.467667,0.262835 1.288797,4.047791 2.725659,8.021884 4.298677,11.924539 0.316036,0.794904 0.837673,1.969695 1.569536,3.494302 -4.471626,-3.603051 -9.391398,-6.786834 -14.630358,-9.602302 -0.299551,0.382105 -0.594195,0.765668 -0.884077,1.150589 z m 7.062759,11.728599 c -1.12e-4,0.0253 0.0023,0.05639 0.003,0.0835 0.01976,0.01118 0.03324,0.02048 0.05141,0.0311 -0.0029,-0.0062 -0.0063,-0.01151 -0.0086,-0.01636 -0.01641,-0.0322 -0.03093,-0.06526 -0.04577,-0.09822 3e-6,-3e-6 6e-6,-5e-6 9e-6,-8e-6 z m 0.0089,0.262195 c 0.0014,0.0281 0.002,0.05384 0.0033,0.08166 0.03478,0.0082 -0.423047,0.08518 -0.385501,0.09956 -0.01451,-0.04749 0.47207,-0.140787 0.465949,-0.168827 -0.01369,-0.0022 -0.01569,-2.89e-4 -0.0315,-0.0031 -0.01741,-0.0031 -0.03482,-0.0062 -0.05224,-0.0093 z"
               id="path7" />
            <path
               style="color:#000000;-inkscape-font-specification:'Liberation Sans';fill:#8623c7;fill-opacity:1;stroke:none;stroke-opacity:1;-inkscape-stroke:none"
               d="m 69.220703,58.361328 -0.511719,0.167969 c -0.01152,0.0038 -0.02157,0.0065 -0.03125,0.0098 l -0.03516,0.01172 -0.03125,0.01758 c -0.567659,0.290174 -1.129894,0.590011 -1.685547,0.898438 -0.15745,0.08772 -0.316132,0.174937 -0.472656,0.263672 l -0.359375,0.205078 0.126953,0.394531 c 1.292761,4.06024 2.732914,8.044879 4.310547,11.958984 0.162777,0.409357 0.531046,1.180275 0.796875,1.773438 -4.08817,-3.141256 -8.464077,-6.00421 -13.144531,-8.519531 l -0.376953,-0.203125 -0.263672,0.33789 c -0.301606,0.384726 -0.598784,0.770681 -0.890625,1.158203 l -0.683594,0.90625 0.78125,-0.0625 c 2.066922,5.003376 4.382183,9.866227 6.925781,14.580079 l 0.453125,0.841796 0.445313,-0.845703 c 0.05017,-0.09511 0.07708,-0.284547 0.06445,-0.384765 -0.01168,-0.09343 -0.01666,-0.120498 -0.01367,-0.07617 -0.0011,-0.01623 -0.0052,-0.09728 -0.0039,-0.160156 0.0013,-0.06288 0.05937,-0.179628 -0.01758,-0.0039 -1.23e-4,2.81e-4 0.0058,-0.0079 0.0059,-0.0078 0.0025,-9.62e-4 0.01367,-0.0059 0.01367,-0.0059 0,0 0.0957,-0.06836 0.0957,-0.06836 0,0 0.01209,-0.01489 0.01563,-0.01953 0.04165,-0.01931 0.08827,-0.03405 0.130859,-0.05859 0.05908,-0.03405 0.126864,-0.07242 0.208985,-0.173828 0.08212,-0.101412 0.158642,-0.334552 0.105468,-0.513672 -0.05317,-0.179119 -0.1484,-0.2555 -0.21289,-0.306641 -0.06449,-0.05114 -0.119941,-0.07973 -0.175781,-0.109375 -0.05459,-0.02898 -0.127372,-0.05938 -0.189454,-0.08789 0.0055,-0.01982 0.01159,-0.02624 0.01563,-0.0625 6.92e-4,-0.0062 -0.002,-0.01577 -0.002,-0.02539 0.05588,-0.09755 0.173742,-0.148055 0.175782,-0.257812 l 0.539062,0.316406 -0.662109,-1.416016 -0.0293,-0.136718 -0.03906,-0.0059 c -0.0049,-0.01086 -0.0073,-0.0152 -0.01367,-0.0293 l -0.07422,-0.166015 -0.896485,-0.449219 v 0.08398 c -0.05172,-0.09179 -0.117512,-0.21054 -0.111328,-0.193359 -0.04906,-0.136324 -0.05091,-0.192402 -0.05273,-0.109375 0.0015,-0.06736 -0.0107,-0.01816 0.0039,-0.03516 l 0.15625,-0.181641 -0.03906,-0.234375 c -0.02455,-0.148938 -0.01422,-0.144258 -0.002,-0.351562 0.0042,-0.07085 0.01428,-0.114041 0.02734,-0.158204 l 0.0625,-0.208984 -0.111328,-0.191406 c -0.90923,-1.565699 -1.798701,-3.142587 -2.669922,-4.732422 l -0.0039,-0.0059 c -0.203295,-0.38426 -0.594738,-1.024756 -0.888672,-1.53125 0.619795,0.34538 1.247451,0.68293 1.857422,1.039062 3.879147,2.264845 7.55419,4.747284 10.96875,7.472656 l 0.287109,0.230469 0.308594,-0.199219 c 0.618693,-0.400365 1.242533,-0.785322 1.873047,-1.15039 l 0.382812,-0.220703 -0.166015,-0.41211 C 74.283651,73.96992 73.1496,70.941333 72.10347,67.869073 71.097555,64.913918 70.182848,61.916771 69.361282,58.880791 Z M 68.560547,59.75 c 0.783974,2.848542 1.634754,5.670114 2.580078,8.447266 1.005824,2.953889 2.101381,5.863358 3.261719,8.738281 -0.41775,0.247411 -0.834033,0.501402 -1.246094,0.763672 -3.376883,-2.671229 -6.988215,-5.118919 -10.798828,-7.34375 -1.150943,-0.67198 -2.319857,-1.325093 -3.503906,-1.958985 l -0.851563,-0.455078 c -0.105518,-0.251861 -0.245447,-0.483715 -0.349609,-0.736328 0.138333,-0.182132 0.279412,-0.363433 0.419922,-0.544922 5.071545,2.751304 9.847073,5.837464 14.18164,9.330078 l 0.779297,-0.617187 c -0.728547,-1.5177 -1.248043,-2.686697 -1.556641,-3.462891 v -0.002 c -1.517102,-3.763927 -2.89239,-7.60128 -4.144531,-11.5 0.02956,-0.01652 0.0583,-0.03429 0.08789,-0.05078 0.37615,-0.20879 0.758843,-0.407115 1.140625,-0.607422 z m -8.246094,13.058594 c 0.742644,1.345294 1.494004,2.683864 2.263672,4.011718 -0.0076,0.0507 -0.02207,0.09041 -0.02539,0.146485 -0.0088,0.148767 -0.0078,0.3027 0.01172,0.484375 -0.0074,0.01871 -0.013,0.0354 -0.01953,0.05469 -0.777745,-1.545726 -1.502286,-3.121873 -2.230469,-4.697265 z m 3.28125,5.322265 0.01953,0.02539 v 0.0039 c -0.01042,-0.01165 -0.0079,-0.01765 -0.01953,-0.0293 z m 0.814453,0.435547 0.0625,0.103516 -0.15039,-0.02344 z m -1.080078,0.271485 c -0.0074,0.0088 -0.0093,0.0097 -0.01758,0.01953 0.0013,-0.0021 0.0098,-0.01367 0.0098,-0.01367 0,0 0.0071,-0.0053 0.0078,-0.0059 z m 0.791016,0.132812 c 0.0026,0.0024 0.01173,0.0098 0.01172,0.0098 -3.1e-5,-3.6e-5 0.01266,0.0228 0.02148,0.03711 0.006,0.0063 0.0089,-0.0097 0.02539,0.07422 -2.1e-5,-1.08e-4 0.0095,0.121309 0.0098,0.125 4e-6,5.7e-5 0,0.002 0,0.002 l -0.08984,0.06836 c -0.0776,-0.01759 -0.156635,-0.03584 -0.265625,-0.06055 l -0.07617,-0.06445 0.0039,-0.0039 c 0.09463,-0.04959 0.326545,-0.17024 0.359375,-0.1875 z m 0.466797,1.363281 0.02148,0.01758 c -0.04842,-0.06666 -0.03005,-0.03029 -0.02539,-0.002 0.0015,-0.0039 1.8e-4,-0.001 0.002,-0.0059 6.24e-4,-0.0017 0.0013,-0.0079 0.002,-0.0098 z m -0.375,0.683594 c 0.03672,0.06261 0.08398,0.142578 0.08398,0.142578 10e-7,2e-6 -0.0091,0.01455 -0.0098,0.01563 -0.0268,-0.05015 -0.04746,-0.10412 -0.07422,-0.154297 -5.52e-4,-0.001 5.51e-4,-0.0029 0,-0.0039 z"
               id="path8" />
          </g>
          <g
             id="text876"
             style="fill:#8623c7;fill-opacity:1;stroke:none;stroke-opacity:1">
            <path
               style="color:#000000;-inkscape-font-specification:'Liberation Sans';fill:#8623c7;fill-opacity:1;stroke:none;stroke-opacity:1;-inkscape-stroke:none"
               d="m 75.607345,55.958091 c -2.113451,0.740483 -3.793612,1.992506 -4.955542,3.631326 -0.845722,1.188715 -1.347098,2.499512 -1.521265,3.895748 0,0 0,0 0,0 -0.06159,0.514516 -0.07963,1.040638 -0.05534,1.578124 0.09022,1.996433 0.754696,3.912452 1.877097,5.798903 0.801899,1.347773 1.739281,2.402784 2.762851,3.192826 0.579598,0.442675 1.170196,0.784367 1.769713,1.029929 0.46275,0.193938 0.930506,0.329937 1.404113,0.409708 1.084505,0.171406 2.125799,0.03001 3.189972,-0.418162 1.246358,-0.524895 2.212231,-1.267085 2.978856,-2.296568 0.873304,-1.419883 1.382973,-2.742403 1.85594,-4.290003 -0.580451,-0.274912 -1.175356,-0.536236 -1.783574,-0.783611 -0.359315,1.427293 -0.834712,2.588201 -1.452684,3.493567 -0.622703,0.89965 -1.364033,1.524749 -2.283235,1.908252 -1.19557,0.498808 -2.325857,0.47588 -3.477301,-0.09767 -1.146119,-0.576823 -2.187227,-1.627541 -3.035425,-3.195111 -0.894021,-1.652255 -1.423046,-3.241795 -1.51414,-4.811017 -0.09494,-1.572544 0.259398,-3.001012 1.096168,-4.246247 0.831163,-1.250517 2.084113,-2.205708 3.708377,-2.780539 1.332346,-0.471521 2.569113,-0.536078 3.644524,-0.224221 1.087454,0.31028 1.894926,0.933923 2.436705,1.832028 0.714643,-0.422531 1.446832,-0.828562 2.196632,-1.216614 -0.691194,-1.358489 -1.818724,-2.302065 -3.413529,-2.745552 -1.580423,-0.452401 -3.435768,-0.363426 -5.428916,0.334907 z"
               id="path9" />
            <path
               style="color:#000000;-inkscape-font-specification:'Liberation Sans';fill:#8623c7;fill-opacity:1;stroke:none;stroke-opacity:1;-inkscape-stroke:none"
               d="m 78.447266,54.849609 c -0.962855,0.05595 -1.971054,0.263707 -3.007813,0.626953 -2.203063,0.77188 -3.977977,2.090375 -5.203125,3.81836 -0.893144,1.25537 -1.427143,2.650406 -1.611328,4.126953 v 0.002 c -0.06507,0.543557 -0.08407,1.098279 -0.05859,1.662109 0.09465,2.094451 0.792533,4.096318 1.947266,6.03711 0.83137,1.397306 1.812485,2.503776 2.890625,3.335937 h 0.002 c 0.61055,0.466316 1.237889,0.831915 1.880859,1.095703 5.9e-4,2.48e-4 0.0014,-2.46e-4 0.002,0 7.89e-4,3.24e-4 0.0012,0.0016 0.002,0.002 0.496016,0.207529 1.002112,0.355242 1.513671,0.441406 h 0.002 0.002 c 1.176852,0.186001 2.330338,0.02827 3.46875,-0.451172 1.31791,-0.555029 2.370451,-1.363072 3.189453,-2.462891 l 0.01367,-0.01758 0.01172,-0.01953 c 0.900923,-1.464788 1.429048,-2.840354 1.908204,-4.408203 l 0.128906,-0.419922 -0.398438,-0.189453 c -0.589277,-0.279092 -1.191781,-0.544051 -1.808593,-0.794922 l -0.542969,-0.220703 -0.142578,0.568359 c -0.349309,1.387545 -0.808626,2.491722 -1.38086,3.330078 -0.577428,0.833425 -1.231971,1.381685 -2.058593,1.726563 -1.084479,0.452459 -2.014351,0.431739 -3.050782,-0.08398 h -0.002 C 75.11016,72.033709 74.140242,71.069545 73.330078,69.572266 72.461111,67.966314 71.962587,66.449769 71.876953,64.974609 l -0.002,-0.002 c -0.08923,-1.477896 0.238419,-2.778905 1.011719,-3.929687 v -0.002 h 0.002 c 0.766707,-1.15354 1.918522,-2.040885 3.453125,-2.583985 1.252649,-0.443316 2.375042,-0.492359 3.332031,-0.214844 h 0.002 v 0.002 c 0.978228,0.279114 1.660618,0.807809 2.140625,1.603515 l 0.261719,0.433594 0.433594,-0.257813 c 0.706495,-0.417713 1.430673,-0.819522 2.171875,-1.203125 l 0.449218,-0.232421 -0.228515,-0.451172 C 84.15479,56.663621 82.886679,55.609669 81.171875,55.132812 80.32347,54.890425 79.408756,54.79374 78.447266,54.849609 Z m 0.05859,1.017578 c 0.858209,-0.05002 1.659623,0.03684 2.390625,0.246094 h 0.002 0.002 c 1.28932,0.358537 2.151913,1.099029 2.785156,2.095703 -0.449841,0.240593 -0.895002,0.485191 -1.332031,0.738282 -0.595913,-0.780469 -1.374311,-1.392117 -2.394532,-1.683594 h -0.002 c -1.193382,-0.345588 -2.543757,-0.265096 -3.955078,0.234375 -1.713922,0.606561 -3.067273,1.631024 -3.962891,2.978515 -0.899181,1.339188 -1.280286,2.892316 -1.179687,4.558594 0.09687,1.662654 0.655492,3.325523 1.574219,5.023438 0.885891,1.637232 1.996527,2.773431 3.253906,3.40625 l 0.002,0.002 c 1.265701,0.630463 2.594388,0.65621 3.900391,0.111328 1.010933,-0.421775 1.838316,-1.123457 2.505859,-2.087891 l 0.002,-0.002 v -0.002 c 0.564131,-0.826485 0.952492,-1.924157 1.298828,-3.107422 0.287091,0.121595 0.571047,0.247102 0.851563,0.375 -0.424852,1.324737 -0.860217,2.504788 -1.613281,3.734375 -0.71226,0.951325 -1.585152,1.626928 -2.753907,2.119141 -0.988627,0.416356 -1.917517,0.540628 -2.908203,0.384765 -0.43426,-0.07314 -0.862837,-0.197503 -1.291015,-0.376953 l -0.002,-0.002 h -0.002 c -0.553454,-0.226694 -1.104196,-0.544244 -1.65039,-0.960937 -0.968998,-0.747921 -1.864293,-1.752544 -2.636719,-3.050782 -1.090067,-1.832105 -1.72085,-3.662135 -1.806641,-5.560546 -0.02304,-0.509808 -0.005,-1.007914 0.05273,-1.492188 v -0.0039 c 0.164577,-1.314478 0.63216,-2.539182 1.429687,-3.660156 h 0.002 c 1.09871,-1.549652 2.683197,-2.736228 4.707032,-3.445313 0.956386,-0.335086 1.87226,-0.522245 2.730468,-0.572266 z"
               id="path10" />
          </g>
          <g
             id="text880"
             style="fill:#8623c7;fill-opacity:1;stroke:none;stroke-opacity:1">
            <path
               style="color:#000000;-inkscape-font-specification:'Liberation Sans';fill:#8623c7;fill-opacity:1;stroke:none;stroke-opacity:1;-inkscape-stroke:none"
               d="m 88.243858,53.473846 c -0.256714,1.304423 -1.416611,3.704776 -2.445434,6.159166 -1.121613,2.675752 -1.990202,5.130702 -2.587709,7.547001 -0.556814,2.251741 -0.746068,3.995751 -0.556731,4.442175 0.228285,0.538258 0.696712,-0.454979 2.259729,-3.132336 0.08126,-0.361777 0.16681,-0.723404 0.256706,-1.084806 2.266437,-0.484913 4.560484,-0.75738 6.850481,-0.783599 0.121415,0.7498 0.235437,1.500538 0.341993,2.252154 0.154954,1.086649 0.294691,2.173805 0.41944,3.261299 0.587984,-0.003 1.17923,0.01493 1.773009,0.0527 -0.377687,-5.182074 -1.121077,-10.365234 -2.261718,-15.525593 -0.251352,-1.131377 -0.521713,-2.259939 -0.81076,-3.385421 -1.086524,0.03158 -2.166606,0.09777 -3.239006,0.19726 z m 1.358855,1.822951 c 0.167681,0.66354 0.330001,1.328002 0.486913,1.993347 0.605599,2.434819 1.13358,4.882787 1.581319,7.341706 -2.00077,0.04564 -3.997373,0.263358 -5.97205,0.6342 1.709135,-4.081146 3.25109,-8.610295 3.445622,-9.010215 0.196696,-0.404368 0.347249,-0.714748 0.458196,-0.959038 z"
               id="path11" />
            <path
               style="color:#000000;-inkscape-font-specification:'Liberation Sans';fill:#8623c7;fill-opacity:1;stroke:none;stroke-opacity:1;-inkscape-stroke:none"
               d="m 91.875,52.755859 -0.40625,0.01172 c -1.097387,0.0319 -2.18845,0.09874 -3.271484,0.199219 l -0.378907,0.03516 -0.07422,0.373047 c -0.223434,1.135318 -1.380199,3.589471 -2.416016,6.060547 -1.12831,2.691728 -2.005505,5.173118 -2.611328,7.623047 -0.282536,1.142567 -0.473641,2.157318 -0.570313,2.958984 -0.04834,0.400833 -0.07247,0.747022 -0.07227,1.039063 2.04e-4,0.29204 0.0055,0.514196 0.111328,0.763671 0.05176,0.122041 0.125849,0.280168 0.335937,0.386719 0.210089,0.106551 0.482968,0.05024 0.621094,-0.03125 0.276252,-0.162982 0.38339,-0.356051 0.566406,-0.632812 0.366034,-0.553524 0.865681,-1.46275 1.644532,-2.796875 l 0.03906,-0.06836 0.01758,-0.07617 c 0.05498,-0.244764 0.114866,-0.489779 0.173828,-0.734375 1.991245,-0.408571 4.000161,-0.634749 6.00586,-0.685546 0.09261,0.587534 0.186082,1.175047 0.269531,1.763671 0.154293,1.082011 0.291795,2.165157 0.416016,3.248047 l 0.05273,0.453125 0.457031,-0.002 c 0.575884,-0.0029 1.155692,0.01372 1.738281,0.05078 l 0.582032,0.03711 -0.04102,-0.582031 C 94.685034,66.944546 93.937104,61.737739 92.791016,56.552734 v -0.002 c -0.25257,-1.136859 -0.524035,-2.269568 -0.814454,-3.40039 z m -0.787109,1.054688 c 0.249027,0.985679 0.489018,1.972788 0.708984,2.96289 1.093683,4.948346 1.801674,9.91857 2.189453,14.888672 -0.251577,-0.01039 -0.503188,-0.02028 -0.753906,-0.02344 -0.111954,-0.945493 -0.230514,-1.89107 -0.365235,-2.835938 v -0.002 c -0.10695,-0.754306 -0.221905,-1.509267 -0.34375,-2.261719 l -0.07031,-0.43164 -0.4375,0.0039 c -2.326506,0.02664 -4.654138,0.303463 -6.951172,0.794922 l -0.3125,0.06641 -0.07617,0.308594 c -0.08435,0.339113 -0.163413,0.680099 -0.240234,1.019531 -0.621501,1.066282 -0.994004,1.70793 -1.304688,2.214844 0.01063,-0.131451 0.0089,-0.224013 0.02734,-0.376953 0.08982,-0.744878 0.272598,-1.726766 0.546875,-2.835938 0.58919,-2.382664 1.447586,-4.812885 2.5625,-7.472656 0.958059,-2.285573 1.951841,-4.386314 2.322266,-5.867187 0.361294,-0.03138 0.726879,-0.04272 1.089843,-0.06641 l -0.541015,1.189453 c -0.106376,0.234225 -0.256555,0.543158 -0.453125,0.947266 -0.09829,0.202066 -0.201344,0.504996 -0.400391,1.050781 -0.199046,0.545785 -0.462319,1.276528 -0.773437,2.121094 -0.622236,1.689133 -1.433489,3.834297 -2.283203,5.863281 l -0.365235,0.873047 0.929688,-0.173828 c 1.948998,-0.366019 3.91711,-0.581979 5.888672,-0.626953 l 0.597656,-0.01367 -0.107422,-0.585937 c -0.449342,-2.467724 -0.978396,-4.924027 -1.585938,-7.367188 l -0.002,-0.0059 C 90.42684,56.501888 90.265447,55.83594 90.097609,55.171781 l -0.324219,-1.28125 c 0.437938,-0.02777 0.87425,-0.06368 1.314454,-0.08008 z m -1.628907,3.046875 c 0.04406,0.183214 0.09153,0.36548 0.134766,0.548828 v 0.0039 l 0.002,0.0039 c 0.558878,2.246978 1.035021,4.506058 1.458984,6.773438 -1.534567,0.06129 -3.062014,0.236082 -4.580078,0.486328 0.732073,-1.793874 1.45291,-3.647953 1.994141,-5.117187 0.312328,-0.847853 0.575245,-1.579604 0.773437,-2.123047 0.119483,-0.327621 0.151285,-0.405736 0.216797,-0.576172 z"
               id="path12" />
          </g>
          <g
             aria-label="L"
             style="font-size:10.5833px;font-family:'Liberation Sans';-inkscape-font-specification:'Liberation Sans';letter-spacing:0px;word-spacing:0px;fill:#8623c7;fill-opacity:1;stroke:none;stroke-width:1.019;stroke-opacity:1"
             id="text884">
            <g
               id="path1066"
               style="fill:#8623c7;fill-opacity:1;stroke:none;stroke-opacity:1">
              <path
                 style="color:#000000;-inkscape-font-specification:'Liberation Sans Italic';fill:#8623c7;fill-opacity:1;stroke:none;stroke-opacity:1;-inkscape-stroke:none"
                 d="m 93.657081,72.146039 c 1.068019,-6.254311 2.668348,-12.433902 4.746779,-18.507128 0.929551,0.111374 1.85238,0.24649 2.76782,0.40431 -2.129878,5.300566 -3.9017,10.696483 -5.277276,16.16546 2.322513,0.242712 4.659556,0.749348 6.975496,1.466273 -0.30098,0.636861 -0.59704,1.275479 -0.88811,1.915811 -2.788687,-0.84593 -5.587809,-1.363975 -8.324709,-1.444726 z"
                 id="path13" />
              <path
                 style="color:#000000;-inkscape-font-specification:'Liberation Sans Italic';fill:#8623c7;fill-opacity:1;stroke:none;stroke-opacity:1;-inkscape-stroke:none"
                 d="m 98.054687,53.083984 -0.132812,0.390625 c -2.086769,6.097591 -3.694718,12.30328 -4.767578,18.585938 l -0.09766,0.578125 0.585937,0.01758 c 2.682925,0.07916 5.438057,0.586664 8.191406,1.421875 l 0.42774,0.128906 0.18359,-0.40625 c 0.29002,-0.638022 0.58486,-1.273609 0.88477,-1.908203 l 0.25195,-0.53125 -0.56055,-0.173828 c -2.14892,-0.665224 -4.321022,-1.096718 -6.486328,-1.363281 1.350708,-5.270704 3.054056,-10.476783 5.109378,-15.591797 l 0.23438,-0.583985 -0.6211,-0.107421 C 100.33386,53.38173 99.40317,53.24524 98.46484,53.132814 Z m 0.710938,1.123047 c 0.574512,0.0735 1.145729,0.158473 1.714845,0.25 -2.032009,5.128503 -3.750345,10.340234 -5.080079,15.626953 l -0.142579,0.570313 0.583985,0.06055 c 2.092099,0.218633 4.199283,0.710198 6.296873,1.326172 -0.14872,0.318392 -0.29709,0.637771 -0.44336,0.957031 -2.479671,-0.721915 -4.966631,-1.171372 -7.421873,-1.298828 1.038117,-5.906186 2.54703,-11.745786 4.492188,-17.492188 z"
                 id="path14" />
            </g>
          </g>
          <g
             aria-label="L"
             style="font-size:10.5833px;font-family:'Liberation Sans';-inkscape-font-specification:'Liberation Sans';letter-spacing:0px;word-spacing:0px;fill:#8623c7;fill-opacity:1;stroke:none;stroke-width:1.019;stroke-opacity:1"
             id="text888">
            <g
               id="path1069"
               style="fill:#8623c7;fill-opacity:1;stroke:none;stroke-opacity:1">
              <path
                 style="color:#000000;-inkscape-font-specification:'Liberation Sans Italic';fill:#8623c7;fill-opacity:1;stroke:none;stroke-opacity:1;-inkscape-stroke:none"
                 d="m 101.11533,73.338673 c 2.49265,-5.839214 5.40847,-11.544145 8.69325,-17.083152 0.86027,0.294013 1.71092,0.607379 2.55124,0.939061 -3.13096,4.793808 -5.99027,9.730107 -8.53973,14.786604 2.18834,0.732934 4.35336,1.648078 6.46476,2.699804 0.11836,0.05925 0.23654,0.118975 0.35454,0.179176 -0.41468,0.570451 -0.82607,1.143145 -1.23415,1.718097 -0.0225,-0.01123 -0.0449,-0.02243 -0.0674,-0.03362 -2.69073,-1.331196 -5.45521,-2.435439 -8.22255,-3.205972 z"
                 id="path15" />
              <path
                 style="color:#000000;-inkscape-font-specification:'Liberation Sans Italic';fill:#8623c7;fill-opacity:1;stroke:none;stroke-opacity:1;-inkscape-stroke:none"
                 d="m 109.58203,55.638672 -0.21094,0.357422 c -3.29559,5.557238 -6.22268,11.281626 -8.72461,17.142578 l 0.49415,-0.308594 -0.16211,1 c 2.73063,0.760312 5.46603,1.852527 8.13281,3.171875 V 77 c 0.0219,0.01087 0.0437,0.02187 0.0664,0.0332 l 0.39063,0.195313 0.25195,-0.355469 c 0.40697,-0.573378 0.81692,-1.143991 1.23047,-1.712891 l 0.35156,-0.482422 -0.53125,-0.271484 c -0.11915,-0.06079 -0.2379,-0.12181 -0.35742,-0.181641 h -0.002 c -1.94492,-0.9688 -3.94452,-1.784614 -5.96094,-2.490234 2.47768,-4.868362 5.21621,-9.637622 8.23633,-14.261719 l 0.3418,-0.523437 -0.58203,-0.228516 c -0.84761,-0.334557 -1.70638,-0.650664 -2.57422,-0.947266 z m 0.46094,1.246094 c 0.52936,0.185314 1.05247,0.38023 1.57422,0.580078 -3.0053,4.641352 -5.78817,9.400528 -8.25196,14.287109 l -0.26562,0.525391 0.55859,0.1875 c 2.09928,0.703104 4.17731,1.59007 6.21094,2.59375 -0.21553,0.298532 -0.4308,0.596725 -0.64453,0.896484 -2.42806,-1.181753 -4.91735,-2.154374 -7.41797,-2.890625 2.3825,-5.522553 5.13983,-10.925349 8.23633,-16.179687 z"
                 id="path16" />
            </g>
          </g>
          <g
             id="text892"
             style="fill:#8623c7;fill-opacity:1;stroke:none;stroke-opacity:1">
            <path
               style="color:#000000;-inkscape-font-specification:'Liberation Sans';fill:#8623c7;fill-opacity:1;stroke:none;stroke-opacity:1;-inkscape-stroke:none"
               d="m 120.27107,60.989841 c -2.97815,3.520439 -5.82831,7.132976 -8.53824,10.841509 -1.0522,1.443415 -2.08107,2.902778 -3.08542,4.377394 0.23067,0.110243 0.46086,0.222204 0.69051,0.335819 3.09562,1.541826 6.07629,3.440891 8.96721,5.598298 0.50017,-0.495898 1.00269,-0.989879 1.5075,-1.481956 -2.63129,-1.977502 -5.34595,-3.757469 -8.16158,-5.270888 1.342,-1.766062 2.71564,-3.510102 4.11952,-5.232561 2.33709,1.318854 4.59374,2.779362 6.77751,4.351829 0.48889,-0.495017 0.97991,-0.988323 1.47303,-1.479928 -2.22427,-1.61273 -4.52795,-3.117516 -6.91851,-4.485035 1.31171,-1.572069 2.64883,-3.125839 4.01028,-4.661658 3.26122,1.934712 6.34874,4.075511 9.27785,6.362405 0.53268,-0.468578 1.06739,-0.935337 1.60409,-1.400291 -3.64444,-2.865466 -7.54304,-5.520324 -11.72375,-7.854937 z"
               id="path17" />
            <path
               style="color:#000000;-inkscape-font-specification:'Liberation Sans';fill:#8623c7;fill-opacity:1;stroke:none;stroke-opacity:1;-inkscape-stroke:none"
               d="m 120.15234,60.339844 -0.26953,0.320312 c -2.98562,3.529276 -5.84321,7.152423 -8.56054,10.871094 h -0.002 c -1.05536,1.447754 -2.08631,2.911471 -3.09375,4.390625 l -0.33398,0.490234 0.53515,0.25586 c 0.22857,0.109236 0.45599,0.221381 0.6836,0.333984 V 77 c 3.063,1.525578 6.01743,3.40806 8.88867,5.550781 l 0.35156,0.263672 0.3125,-0.310547 c 0.49914,-0.494873 1.00012,-0.987435 1.50391,-1.478515 l 0.42578,-0.414063 -0.47461,-0.357422 c -2.48611,-1.868392 -5.06694,-3.52189 -7.72266,-4.986328 1.14057,-1.492082 2.30315,-2.970754 3.48829,-4.431641 2.18528,1.252149 4.31288,2.608105 6.36523,4.085938 l 0.35352,0.255859 0.30664,-0.310547 c 0.48795,-0.494072 0.97851,-0.985883 1.4707,-1.476562 l 0.42383,-0.421875 -0.48438,-0.351563 c -2.07251,-1.502693 -4.2331,-2.887219 -6.45117,-4.18164 1.09432,-1.303951 2.20512,-2.596047 3.33399,-3.875 3.10537,1.864581 6.07171,3.89728 8.87499,6.085937 l 0.33204,0.259766 0.3164,-0.279297 c 0.53171,-0.467722 1.06583,-0.932366 1.60156,-1.396484 l 0.4668,-0.404297 -0.48437,-0.382813 c -3.66302,-2.880074 -7.58448,-5.549399 -11.79102,-7.898437 z m 0.23829,1.320312 c 3.82821,2.164399 7.41396,4.600813 10.78906,7.220703 -0.27556,0.239811 -0.55168,0.479931 -0.82617,0.720703 -2.84504,-2.201463 -5.82259,-4.282843 -8.98047,-6.15625 l -0.36133,-0.214843 -0.2793,0.314453 c -1.36475,1.539547 -2.70645,3.097782 -4.02148,4.673828 l -0.38867,0.466797 0.52734,0.300781 c 2.19848,1.25764 4.30848,2.656875 6.36719,4.126953 -0.24753,0.247922 -0.49377,0.497307 -0.74024,0.746094 -2.08636,-1.48531 -4.2273,-2.88932 -6.45508,-4.146484 l -0.375,-0.210938 -0.27148,0.333984 c -1.40746,1.726851 -2.78334,3.475338 -4.12891,5.246094 l -0.36132,0.47461 0.52539,0.28125 c 2.61578,1.405999 5.13088,3.08723 7.59179,4.90625 -0.25206,0.246952 -0.503,0.494273 -0.7539,0.742187 -2.7997,-2.063586 -5.6826,-3.903739 -8.6836,-5.398437 -0.052,-0.02572 -0.10421,-0.05062 -0.15625,-0.07617 0.89483,-1.303758 1.80386,-2.599706 2.73633,-3.878907 v -0.002 c 2.61678,-3.581 5.37755,-7.064942 8.2461,-10.470703 z"
               id="path18" />
          </g>
          <g
             aria-label="D"
             style="font-size:10.5833px;font-family:'Liberation Sans';-inkscape-font-specification:'Liberation Sans';letter-spacing:0px;word-spacing:0px;fill:#8623c7;fill-opacity:1;stroke:none;stroke-width:1.019;stroke-opacity:1"
             id="text896">
            <g
               id="path1072"
               style="fill:#8623c7;fill-opacity:1;stroke:none;stroke-opacity:1">
              <path
                 style="color:#000000;-inkscape-font-specification:'Liberation Sans Italic';fill:#8623c7;fill-opacity:1;stroke:none;stroke-opacity:1;-inkscape-stroke:none"
                 d="m 135.88625,72.062297 c 2.06197,1.789272 3.1007,3.799137 3.1603,5.905797 0.0721,2.114297 -0.84494,4.067063 -2.66362,5.897308 -1.4855,1.494955 -3.08096,2.511766 -4.75745,3.086948 -1.67862,0.575904 -3.35535,0.689506 -5.0344,0.372414 -1.67015,-0.31912 -3.15786,-1.04853 -4.51974,-2.192254 -1.42292,-1.194989 -2.86591,-2.335159 -4.33222,-3.407763 4.47765,-4.517591 9.15346,-8.875602 13.99455,-13.084474 1.4222,1.11057 2.80584,2.253395 4.15258,3.422024 z m -15.01426,9.459794 c 0.82367,0.641203 1.63929,1.301176 2.44741,1.977744 1.10976,0.929106 2.29633,1.515581 3.59715,1.760283 1.30477,0.237681 2.62516,0.105728 3.96491,-0.413793 1.3502,-0.520124 2.63691,-1.394081 3.83794,-2.645329 1.3564,-1.413103 2.04461,-2.869481 2.01917,-4.393631 -0.0254,-1.519114 -0.76537,-2.951023 -2.23905,-4.229174 -0.78483,-0.680699 -1.5817,-1.352056 -2.39095,-2.012724 -3.84547,3.227779 -7.59632,6.544961 -11.23658,9.956624 z"
                 id="path19" />
              <path
                 style="color:#000000;-inkscape-font-specification:'Liberation Sans Italic';fill:#8623c7;fill-opacity:1;stroke:none;stroke-opacity:1;-inkscape-stroke:none"
                 d="m 131.7168,67.980469 -0.31836,0.27539 c -4.84992,4.216546 -9.53433,8.58219 -14.02149,13.109375 l -0.41601,0.421875 0.47656,0.34961 c 1.456,1.065063 2.89141,2.198183 4.30664,3.386718 1.42012,1.192633 2.99601,1.967223 4.75195,2.302735 1.76163,0.332687 3.53725,0.210447 5.29493,-0.392578 1.75697,-0.602796 3.42047,-1.666583 4.95312,-3.208985 1.8855,-1.897488 2.88934,-4.000188 2.8125,-6.271484 -0.0641,-2.264779 -1.19529,-4.41785 -3.33594,-6.275391 -1.35302,-1.17408 -2.74433,-2.323189 -4.17383,-3.439453 z m 0.0391,1.33789 c 1.29414,1.019798 2.56545,2.060345 3.79687,3.128907 1.9833,1.720999 2.92925,3.586619 2.98438,5.535156 v 0.002 0.002 c 0.0667,1.956548 -0.76431,3.757076 -2.51563,5.519531 -1.43835,1.447506 -2.96454,2.417277 -4.56054,2.964844 -1.59891,0.548558 -3.17764,0.654556 -4.77344,0.353516 h -0.002 c -1.5836,-0.302908 -2.98398,-0.987647 -4.28711,-2.082032 -1.27275,-1.068873 -2.57005,-2.074835 -3.87891,-3.048828 4.24557,-4.263136 8.66396,-8.387327 13.23633,-12.375 z m 0.34766,1.585938 -0.32227,0.271484 c -3.85217,3.2334 -7.61037,6.55622 -11.25781,9.97461 l -0.43555,0.408203 0.4707,0.365234 c 0.8186,0.637253 1.62981,1.293858 2.4336,1.966797 1.1659,0.976112 2.43922,1.609455 3.83008,1.871094 h 0.002 0.002 c 1.3965,0.25439 2.82105,0.109762 4.23828,-0.439453 1.42753,-0.549913 2.7786,-1.470685 4.02344,-2.767579 1.41788,-1.477157 2.18825,-3.072987 2.16016,-4.755859 -0.0281,-1.679146 -0.86187,-3.259222 -2.41407,-4.605469 -0.78852,-0.6839 -1.58903,-1.359457 -2.40234,-2.023437 z m 0.0137,1.333984 c 0.69063,0.568747 1.376,1.141057 2.04883,1.72461 1.39516,1.210052 2.03977,2.494436 2.0625,3.853515 0.0228,1.365426 -0.58204,2.682205 -1.87696,4.03125 -1.15721,1.2056 -2.37947,2.033103 -3.65234,2.523438 h -0.002 c -1.26098,0.488976 -2.47571,0.609052 -3.6875,0.388672 h -0.002 c -1.21011,-0.227951 -2.30821,-0.768705 -3.36133,-1.650391 -0.65522,-0.548563 -1.31863,-1.079423 -1.98437,-1.605469 3.39497,-3.167309 6.8815,-6.257113 10.45508,-9.265625 z"
                 id="path20" />
            </g>
          </g>
          <text
             xml:space="preserve"
             style="font-size:10.5833px;line-height:1.25;font-family:sans-serif;letter-spacing:0px;word-spacing:0px;fill:#8623c7;fill-opacity:1;stroke:none;stroke-width:0.264583;stroke-opacity:1"
             x="132.02708"
             y="75.279175"
             id="text957" />
        </g>
        <path
           style="color:#000000;fill:#8623c7;fill-opacity:1;-inkscape-stroke:none"
           d="m 45.693359,76.804687 c -2.004612,2.567437 -3.75938,5.308016 -5.248047,8.177735 l -0.759765,1.464844 6.162109,3.193359 c -0.882054,1.861894 -1.639816,3.776664 -2.269531,5.738281 l -4.919922,-1.388672 -0.447266,1.585938 c -0.578673,2.0474 -1.032515,4.132476 -1.355468,6.238278 l -0.25,1.63086 11.875,1.82032 c -0.04141,0.37452 -0.102321,0.74769 -0.132813,1.12304 -0.05126,0.61113 -0.05262,1.2263 -0.07617,1.83985 l -9.169922,0.0176 0.002,1.65039 c 0.0054,2.97098 0.265111,5.93419 0.765625,8.85547 l 0.279296,1.62696 5.617188,-0.96485 c 0.174092,0.84008 0.371772,1.67381 0.589844,2.50391 L 37,124.71484 l 0.470703,1.58008 c 0.05444,0.18219 0.109804,0.36524 0.166016,0.54688 0.64386,2.08055 1.405474,4.12365 2.277343,6.11914 l 0.660157,1.51172 3.880859,-1.69336 c 0.596473,1.26393 1.213931,2.51937 1.908203,3.73437 l 0.81836,1.4336 6.613281,-3.7793 c 0.538183,0.86801 1.103548,1.71587 1.697265,2.54492 l -3.777343,2.92578 1.011718,1.30469 c 0.575255,0.74237 1.207108,1.43684 1.824219,2.14453 l -4.302734,4.02539 1.128906,1.20508 c 1.818193,1.94078 3.784908,3.75087 5.892578,5.40625 l 1.300781,1.02148 2.761719,-3.52734 c 0.09557,0.0695 0.187061,0.14414 0.283203,0.21289 1.225359,0.87533 2.496518,1.68471 3.804688,2.42578 l 1.435547,0.81445 3.390625,-5.98632 c 0.719325,0.36582 1.449232,0.70705 2.191406,1.02539 l -3.492188,9.25586 1.542969,0.58203 c 1.974527,0.74505 3.99916,1.35652 6.056641,1.83008 l 1.607422,0.37109 1.763672,-7.6543 c 0.440567,0.082 0.881202,0.15796 1.324218,0.22461 l -0.490234,4.57422 1.640625,0.17383 c 1.525229,0.16298 3.059535,0.24531 4.595703,0.24219 l -0.0059,-3.30078 c -0.864555,0.002 -1.725417,-0.0811 -2.587891,-0.13672 l 0.46875,-4.38477 -1.642578,-0.17578 c -1.407695,-0.15007 -2.809026,-0.38603 -4.193359,-0.70508 l -1.607422,-0.37109 -1.716797,7.44922 c -0.829324,-0.22431 -1.650206,-0.47339 -2.464844,-0.7461 l 3.408203,-9.03125 -1.542969,-0.58203 c -1.632034,-0.61595 -3.215353,-1.35826 -4.726562,-2.21484 l -1.4375,-0.8125 -3.285156,5.79883 c -0.711651,-0.44295 -1.437042,-0.86431 -2.119141,-1.35157 v 0.002 c -0.504508,-0.36076 -1.000286,-0.73287 -1.488281,-1.11524 l -1.298828,-1.01758 -2.658203,3.39454 c -1.069471,-0.90086 -2.097605,-1.84256 -3.083985,-2.82813 l 4.154297,-3.88477 -1.125,-1.20507 c -0.57106,-0.61091 -1.092081,-1.26896 -1.628906,-1.91211 l 3.623047,-2.8086 -1.007813,-1.30273 c -1.200366,-1.55288 -2.295701,-3.20009 -3.277344,-4.91602 l -0.820312,-1.43164 -6.445313,3.68555 c -0.47982,-0.90775 -0.977236,-1.8077 -1.40039,-2.74219 v -0.002 c -0.104397,-0.2299 -0.207617,-0.45999 -0.308594,-0.69141 l -0.658203,-1.51172 -3.748047,1.63477 c -0.422083,-1.05081 -0.826957,-2.10864 -1.183594,-3.18359 l 9.189453,-2.7461 -0.472656,-1.58203 c -0.524055,-1.75304 -0.944438,-3.53487 -1.253906,-5.33398 l -0.279297,-1.62696 -5.380859,0.92383 c -0.228712,-1.66133 -0.373773,-3.32998 -0.433594,-5.00586 l 8.960937,-0.0156 -0.0039,-1.64844 c -0.0016,-1.07599 0.04326,-2.14901 0.132813,-3.21484 v -0.002 -0.004 c 0.06863,-0.84486 0.167996,-1.68873 0.296875,-2.5293 l 0.25,-1.63086 -11.714844,-1.79492 c 0.165055,-0.875303 0.353516,-1.744831 0.566406,-2.609376 l 4.660156,1.316406 0.447266,-1.587891 c 0.801001,-2.835328 1.889928,-5.590363 3.244141,-8.203125 l 0.757812,-1.464843 -5.875,-3.042969 c 1.215702,-2.164645 2.487099,-4.303797 4.023438,-6.271485 z"
           id="path1034" />
        <g
           id="g4910"
           transform="matrix(1,0,0,1.6370643,131.33688,-136.54223)"
           style="fill:#8623c7;fill-opacity:1;stroke:#721ea9">
          <path
             style="color:#000000;fill:#8623c7;fill-opacity:1;stroke:none;-inkscape-stroke:none"
             d="m -0.171875,135.92383 -2.3457031,0.008 c 0.00538,1.49983 0.2711348,2.70707 0.8789062,3.6543 0.6077715,0.94722 1.55539883,1.53646 2.54882815,1.82031 1.88996835,0.54001 4.40271695,0.32123 6.85742185,0.0469 0.3334694,-0.0373 0.6729082,-0.077 1.0117188,-0.12109 1.7393751,-0.22639 3.1011241,0.42912 3.8828121,1.42774 0.780176,0.99667 1.013139,2.30753 0.296875,3.73828 -0.351958,0.68528 -0.91911,1.28555 -1.753906,1.75781 -1.4981097,0.84751 -2.6533001,1.65279 -3.486328,2.59375 -0.8330279,0.94096 -1.3148772,2.08812 -1.2871094,3.28711 0.033823,1.55926 0.7461782,3.25555 2.0292969,5.13281 1.2820264,1.87567 1.1259338,3.65853 0.2246094,4.81055 -0.9269972,1.18116 -2.5690285,1.71528 -4.7753906,0.93164 -2.6678331,-0.94756 -5.0925436,-0.98401 -6.8593751,0.27148 -1.7668314,1.2555 -2.5225365,3.58884 -2.3749999,6.5293 0.1377892,2.74618 -1.1029943,4.21484 -2.7011719,4.5293 h -0.00391 l -0.00391,0.002 c -1.1326361,0.23008 -2.5311554,-0.13407 -3.9531244,-1.4707 -2.132999,-2.005 -4.445433,-2.93991 -6.570313,-2.375 -1.924918,0.51175 -3.294978,2.27677 -4.183593,4.66406 -4.655963,1.51106 -6.952556,0.89152 -9.080078,0.60156 l -0.316407,2.32422 c 1.933069,0.26345 5.165857,1.03674 10.5625,-0.81641 l 0.566407,-0.19531 0.175781,-0.57226 c 0.715287,-2.3491 1.791945,-3.45178 2.876953,-3.74024 1.085008,-0.28845 2.571638,0.13424 4.363281,1.81836 1.843258,1.73264 4.0326258,2.46225 6.0234371,2.05859 6.303e-4,-1.2e-4 0.00132,1.3e-4 0.00195,0 2.8140767,-0.55828 4.7636494,-3.36453 4.5839843,-6.94531 -0.1251982,-2.49524 0.4868541,-3.85778 1.390625,-4.5 0.90377097,-0.64221 2.44958134,-0.77987 4.7167969,0.0254 2.9323327,1.0415 5.8160428,0.33037 7.4042967,-1.69336 h 0.002 c 1.573508,-2.00888 1.617939,-5.01578 -0.134766,-7.58007 -1.1261856,-1.64767 -1.6034681,-3.03826 -1.6210931,-3.86329 v -0.002 c -0.014032,-0.6059 0.1531304,-1.06089 0.6992188,-1.67773 0.5460883,-0.61685 1.5012793,-1.32476 2.8847653,-2.10743 1.188702,-0.67247 2.116317,-1.6127 2.689453,-2.73046 l 0.002,-0.004 0.002,-0.004 c 1.098922,-2.18457 0.760934,-4.57839 -0.542968,-6.24414 -1.303903,-1.66574 -3.540877,-2.63298 -6.0332032,-2.30859 -0.323099,0.0421 -0.6499166,0.0813 -0.9707031,0.11719 -2.3696555,0.26484 -4.8687764,0.33912 -5.953125,0.0293 -0.60310053,-0.17232 -0.93802733,-0.39756 -1.2167969,-0.83203 -0.27876957,-0.43447 -0.50342947,-1.17389 -0.5078125,-2.39648 z"
             id="path4892" />
          <path
             style="color:#000000;fill:#8623c7;fill-opacity:1;stroke:none;-inkscape-stroke:none"
             d="m 7.5898437,130.69336 c -0.6603904,0.0146 -1.3865603,0.12986 -2.1953125,0.33008 l 0.5625,2.27539 c 1.3625918,-0.33733 2.2236976,-0.27935 2.6230469,-0.13281 0.3993493,0.14653 0.4789885,0.26355 0.5761719,0.69726 0.1943667,0.86743 -0.3089394,2.94127 -1.265625,4.95117 v 0.002 l -0.029297,0.0605 c -0.1008638,0.21162 -0.2066255,0.42489 -0.3164062,0.64063 -1.0511329,2.06564 -1.58255,3.75211 -1.4023438,5.33594 0.1802062,1.58382 1.1625839,2.86169 2.5371094,3.84179 l 0.00195,0.002 0.00195,0.002 c 0.7138195,0.50505 1.5978846,1.01777 2.6230476,1.51172 2.567971,1.23731 3.056348,3.67516 1.914062,5.41797 -0.702151,1.05797 -1.914855,1.73258 -3.6953128,1.7207 -2.8896667,-0.0193 -5.1565877,0.61781 -6.4355468,2.29297 v 0.002 c -1.2449333,1.63299 -1.3834216,3.99632 -0.5859375,6.74609 0.6458376,2.22688 0.032858,3.84307 -1.0996094,4.68555 -1.13601571,0.84512 -2.8100637,0.94939 -4.8046875,-0.33398 -1.466858,-0.9438 -2.8870797,-1.49133 -4.25,-1.59375 -1.3613816,-0.1023 -2.670007,0.28337 -3.675781,1.11328 -1.366798,1.12209 -2.205139,2.96279 -2.503906,5.31445 -0.305461,2.40437 -1.467054,3.60066 -2.738281,3.9336 -1.271228,0.33293 -2.89104,-0.14871 -4.332032,-2.04102 l -0.06445,-0.082 -0.07617,-0.0723 c -0.07878,-0.072 -0.154024,-0.10076 -0.224609,-0.1582 -0.02326,-0.0921 -0.02695,-0.13362 -0.0625,-0.25586 l -0.212891,0.0625 c -0.05911,-0.035 -0.107594,-0.0942 -0.175781,-0.125 -0.0519,-0.0235 -0.122064,-0.03 -0.183594,-0.0488 0.02765,0.0188 0.149387,0.10055 0.28711,0.19336 l -1.964844,0.57227 c 0.07597,0.26124 0.0975,0.37867 0.103516,0.41406 0.003,0.0177 0.0011,-0.001 0.0078,0.0488 0.0034,0.0249 -0.0063,0.0622 0.05469,0.24023 0.01524,0.0445 0.03636,0.0989 0.07031,0.16406 0.03395,0.0652 0.148026,0.22022 0.148438,0.22071 8.07e-4,9.5e-4 0.498328,0.33505 0.517578,0.34765 l -0.08984,-0.0996 c 0.02916,0.0383 0.06618,0.06 0.0957,0.0977 -0.0058,-0.003 0.0069,0.009 0.0039,0.008 -4.36e-4,-2.3e-4 0.0023,2e-4 0.002,0 2.94e-4,3.8e-4 0.0017,-3.7e-4 0.002,0 1.858487,2.36146 4.415702,3.37624 6.6875,2.78125 2.310844,-0.6052 4.077201,-2.80889 4.470703,-5.90625 0.248056,-1.95251 0.928453,-3.19136 1.666015,-3.79687 l 0.00195,-0.002 v -0.002 c 0.5415174,-0.44767 1.1594973,-0.64788 2.0097656,-0.58398 0.8502684,0.0639 1.9288661,0.43558 3.1582032,1.22656 2.597132,1.67104 5.47425436,1.72936 7.4707031,0.24414 1.9951592,-1.48427 2.8084894,-4.26941 1.953125,-7.21875 -0.6762425,-2.33172 -0.4132408,-3.86851 0.1992187,-4.67187 0.6171603,-0.80835 2.0230663,-1.388 4.5546875,-1.3711 2.4265899,0.0162 4.5076769,-1.01867 5.6699219,-2.77539 v -0.004 l 0.002,-0.002 c 1.906821,-2.90927 0.781052,-7.06134 -2.857422,-8.81445 -0.923742,-0.44508 -1.705136,-0.90381 -2.283203,-1.3125 l -0.0039,-0.002 c -1.0655998,-0.76064 -1.4688901,-1.35738 -1.5644522,-2.19727 -0.09569,-0.84102 0.2077558,-2.1304 1.1621093,-4.00586 0.1292205,-0.25394 0.2538381,-0.50803 0.3730469,-0.75976 3.74e-4,-7.9e-4 0.0016,-0.001 0.002,-0.002 l 0.101562,-0.21484 0.002,-0.0566 c 0.987455,-2.1156 1.765435,-4.25628 1.330078,-6.19922 -0.227071,-1.01339 -0.969896,-1.98601 -2.0566397,-2.38477 -0.5433721,-0.19937 -1.1364846,-0.2861 -1.7968751,-0.27148 z m -29.8320307,46.02148 c 0.02223,7.9e-4 0.04716,0.002 0.08008,0.006 -0.0061,-5.7e-4 -0.01153,-0.003 -0.01758,-0.004 -0.03063,-0.002 -0.03635,-0.002 -0.0625,-0.002 z"
             id="path4904" />
        </g>
        <g
           id="g906"
           transform="matrix(0.36286827,1.1211323,-1.1211323,0.36286827,236.58922,-5.2206861)"
           style="fill:#8623c7;fill-opacity:1;stroke:#721ea9">
          <g
             id="path884"
             style="fill:#8623c7;fill-opacity:1">
            <path
               style="color:#000000;fill:#8623c7;fill-opacity:1;stroke:none;-inkscape-stroke:none"
               d="m 87.89755,152.46391 c -0.0053,0.0611 -0.202908,0.69594 -0.438997,1.41128 -0.869376,2.63427 -1.189691,3.63645 -1.260456,3.94019 l -0.07251,0.31119 1.564715,2.3421 c 0.860645,1.28826 1.597145,2.40567 1.636817,2.48351 0.06934,0.13522 0.189793,0.15208 3.079633,0.40391 l 3.007295,0.26192 0.309687,-0.33615 c 0.170293,-0.18498 0.415399,-0.44084 0.544628,-0.56867 0.129228,-0.12784 0.509233,-0.52551 0.84486,-0.8836 0.335626,-0.35807 0.752406,-0.79744 0.925825,-0.976 0.173415,-0.17856 0.341302,-0.35366 0.373283,-0.38972 0.05357,-0.0604 0.196901,-0.20977 0.900843,-0.93943 l 0.258431,-0.26783 -0.113883,-0.79944 c -0.06258,-0.43968 -0.202681,-1.41038 -0.311312,-2.15695 -0.108635,-0.74659 -0.192988,-1.40366 -0.187863,-1.46013 0.0052,-0.0565 -0.04507,-0.42786 -0.111993,-0.82529 l -0.12214,-0.72247 -0.760213,-0.46657 c -0.418278,-0.25653 -1.296096,-0.77826 -1.950718,-1.1598 -0.654613,-0.38153 -1.467992,-0.8629 -1.807407,-1.0697 l -0.617076,-0.37607 -1.329473,0.48924 c -0.731158,0.26904 -1.362738,0.51037 -1.403691,0.53642 -0.04102,0.0261 -0.721389,0.28561 -1.51175,0.57691 -0.981468,0.36175 -1.439995,0.56533 -1.446534,0.64115 z m 1.306115,1.20248 c 0.0048,-0.0553 0.339748,-0.20365 1.05669,-0.4679 0.577346,-0.2128 1.07389,-0.40274 1.103852,-0.42178 0.02991,-0.019 0.491471,-0.1955 1.025569,-0.39204 l 0.971384,-0.35733 0.450852,0.27486 c 0.247936,0.15108 0.841737,0.50257 1.319922,0.78126 0.478188,0.27872 1.119625,0.66025 1.425168,0.84766 l 0.555459,0.34049 0.0887,0.52789 c 0.0489,0.29031 0.08609,0.56154 0.08228,0.60277 -0.0037,0.0412 0.05767,0.52143 0.137028,1.0668 0.07936,0.54536 0.181936,1.25431 0.227647,1.57549 l 0.08304,0.58406 -0.188769,0.19539 c -0.514216,0.53301 -0.619038,0.64229 -0.658172,0.68636 -0.02334,0.0263 -0.146011,0.15421 -0.272687,0.28466 -0.126686,0.13043 -0.430954,0.45146 -0.676123,0.71305 -0.245168,0.26156 -0.522981,0.55167 -0.61738,0.64505 -0.0944,0.0934 -0.273174,0.28052 -0.397568,0.41564 l -0.226238,0.24574 -2.196698,-0.1916 c -2.110975,-0.18395 -2.198968,-0.19664 -2.249669,-0.29491 -0.483484,-0.80844 -0.884414,-1.34896 -1.195592,-1.81421 l -1.143194,-1.71066 0.05289,-0.22759 c 0.0517,-0.22187 0.285786,-0.9535 0.92085,-2.87778 0.17246,-0.52255 0.316912,-0.98669 0.32076,-1.03135 z"
               id="path1" />
            <path
               style="color:#000000;fill:#8623c7;fill-opacity:1;stroke:none;-inkscape-stroke:none"
               d="m 93.634766,149.75195 -1.521485,0.5586 c -0.367006,0.13504 -0.710036,0.26321 -0.966797,0.36132 -0.12838,0.0491 -0.234656,0.0912 -0.314453,0.12305 -0.0399,0.0159 -0.07193,0.0293 -0.09961,0.041 -0.02768,0.0118 -0.0152,-0.003 -0.103516,0.0527 0.08463,-0.0538 0.0368,-0.0218 0.01758,-0.0137 -0.01923,0.008 -0.05049,0.0215 -0.08984,0.0371 -0.0787,0.0313 -0.190255,0.0751 -0.326172,0.12695 -0.271835,0.10372 -0.639317,0.23959 -1.033203,0.38477 -0.49485,0.18239 -0.858546,0.3265 -1.113282,0.43945 -0.127367,0.0565 -0.225825,0.10251 -0.3125,0.1543 -0.04334,0.0259 -0.08366,0.0516 -0.132812,0.0957 -0.04915,0.0441 -0.145706,0.1016 -0.164063,0.31445 0.0064,-0.0739 0.0066,-0.0395 0.002,-0.0215 -0.0047,0.018 -0.01263,0.0486 -0.02344,0.0859 -0.02162,0.0747 -0.05447,0.18039 -0.09375,0.30664 -0.07856,0.25248 -0.187309,0.5877 -0.304688,0.94336 -0.869691,2.63522 -1.181363,3.59812 -1.269531,3.97656 l -0.115234,0.49023 1.667969,2.4961 c 0.4299,0.6435 0.829035,1.2443 1.125,1.69336 0.147982,0.22452 0.270366,0.41066 0.357421,0.54492 0.04353,0.0671 0.07747,0.12205 0.101563,0.16016 0.02409,0.0381 0.04973,0.0849 0.02734,0.041 v 0.002 c 0.03846,0.075 0.201554,0.23999 0.333984,0.28907 0.132431,0.0491 0.259746,0.068 0.470703,0.0957 0.421914,0.0555 1.170008,0.12211 2.615235,0.24805 l 3.214843,0.27929 0.451172,-0.49023 c 0.164933,-0.17916 0.412567,-0.43534 0.53125,-0.55274 0.146331,-0.14475 0.517749,-0.53616 0.855469,-0.89648 0.334202,-0.35655 0.754102,-0.79796 0.921875,-0.9707 0.174646,-0.17983 0.318047,-0.32492 0.386719,-0.40235 0.03469,-0.0391 0.184838,-0.19818 0.888672,-0.92773 l 0.402335,-0.41602 -0.144523,-1.00586 c -0.06275,-0.44089 -0.201855,-1.41121 -0.310547,-2.1582 -0.05402,-0.37123 -0.103111,-0.71908 -0.136719,-0.98047 -0.0168,-0.13069 -0.02873,-0.23978 -0.03711,-0.3164 -0.0042,-0.0383 -0.0083,-0.0697 -0.0098,-0.0879 -0.0015,-0.0182 0.0055,-0.0566 -0.002,0.0254 0.01091,-0.1185 -7.1e-5,-0.12331 -0.0059,-0.17969 -0.0058,-0.0564 -0.01484,-0.1234 -0.02539,-0.20117 -0.02109,-0.15554 -0.04982,-0.34984 -0.08398,-0.55274 v -0.002 l -0.154297,-0.91211 -0.925781,-0.56641 c -0.425247,-0.2608 -1.301548,-0.78283 -1.958985,-1.16601 -0.652576,-0.38034 -1.466788,-0.86215 -1.798828,-1.06446 z m -0.0918,0.9375 0.441406,0.26953 c 0.346789,0.2113 1.159758,0.69151 1.816406,1.07422 0.651806,0.3799 1.530098,0.90204 1.941406,1.1543 l 0.595704,0.36523 0.08984,0.53321 c 0.03276,0.19453 0.06256,0.38372 0.08203,0.52734 0.0097,0.0718 0.01722,0.13227 0.02148,0.17383 0.0043,0.0416 -0.0044,0.10392 0.0039,0.0137 -0.0087,0.0961 -6.15e-4,0.0916 0.002,0.12305 0.0026,0.0314 0.007,0.0665 0.01172,0.10937 0.0094,0.0858 0.02379,0.19808 0.04102,0.33203 0.03445,0.26792 0.0821,0.62074 0.136718,0.9961 0.10857,0.74615 0.24814,1.71778 0.310547,2.15625 l 0.08594,0.59375 -0.115235,0.11914 c -0.704049,0.72977 -0.839664,0.86949 -0.912109,0.95117 0.0047,-0.005 -0.189144,0.19966 -0.361328,0.37695 -0.179064,0.18438 -0.594591,0.62088 -0.931641,0.98047 -0.333532,0.35586 -0.719906,0.76213 -0.832031,0.87305 -0.139775,0.13826 -0.382941,0.39123 -0.558594,0.58203 l -0.167968,0.18359 -2.800782,-0.24414 c -1.44461,-0.12588 -2.200018,-0.19442 -2.578125,-0.24414 -0.14907,-0.0196 -0.194422,-0.0314 -0.226562,-0.0391 -4.8e-5,-1e-5 4.7e-5,-0.002 0,-0.002 -0.02714,-0.0429 -0.06288,-0.0973 -0.107422,-0.16602 -0.08909,-0.1374 -0.212646,-0.32519 -0.361328,-0.55078 -0.297364,-0.45117 -0.696209,-1.05446 -1.126953,-1.69922 l -1.462891,-2.18945 0.03125,-0.13086 c 0.05336,-0.22904 0.380942,-1.27099 1.25,-3.9043 0.11871,-0.35968 0.227998,-0.69799 0.308594,-0.95703 0.0403,-0.12952 0.07336,-0.23835 0.09766,-0.32226 0.0015,-0.005 0.0025,-0.009 0.0039,-0.0137 0.04102,-0.0215 0.07837,-0.0416 0.15625,-0.0762 0.22153,-0.0982 0.575883,-0.23861 1.0625,-0.41797 0.396474,-0.14612 0.764821,-0.28328 1.041016,-0.38867 0.138097,-0.0527 0.254737,-0.097 0.339844,-0.13086 0.04255,-0.0169 0.07655,-0.0327 0.105468,-0.0449 0.02892,-0.0122 0.01253,0.008 0.107422,-0.0527 -0.07808,0.0497 -0.03709,0.0211 -0.01953,0.0137 0.01756,-0.007 0.04554,-0.0206 0.08203,-0.0352 0.07299,-0.0291 0.17866,-0.069 0.304688,-0.11719 0.252056,-0.0963 0.590927,-0.22342 0.955078,-0.35742 z m -0.136719,0.86914 -1.162109,0.42774 c -0.268505,0.0988 -0.518782,0.1917 -0.707032,0.26367 -0.09412,0.036 -0.173206,0.0682 -0.232422,0.0918 -0.02961,0.0118 -0.05461,0.0201 -0.07617,0.0293 -0.02156,0.009 -0.0051,-0.008 -0.0918,0.0469 0.08537,-0.0542 0.04205,-0.023 0.0293,-0.0176 -0.01275,0.005 -0.03421,0.0141 -0.0625,0.0254 -0.05658,0.0225 -0.139371,0.0559 -0.238282,0.0937 -0.197821,0.0756 -0.464681,0.17537 -0.751953,0.28125 -0.362527,0.13362 -0.629824,0.23791 -0.820312,0.32227 -0.09524,0.0422 -0.169556,0.077 -0.240235,0.11914 -0.03534,0.0211 -0.07013,0.0417 -0.115234,0.082 -0.04511,0.0404 -0.137975,0.0942 -0.15625,0.30469 0.0056,-0.0613 0.0067,-0.044 0.0039,-0.0332 -0.0029,0.0114 -0.0079,0.0319 -0.01563,0.0586 -0.01544,0.0533 -0.03979,0.13083 -0.06836,0.22265 -0.05713,0.18365 -0.135141,0.42825 -0.220703,0.6875 -0.63537,1.92521 -0.862486,2.61729 -0.931641,2.91407 l -0.09375,0.4082 1.244141,1.86328 c 0.316589,0.47334 0.706199,0.99772 1.171875,1.77344 0.0339,0.0657 0.192306,0.22139 0.30664,0.26367 0.114335,0.0423 0.210151,0.0555 0.367188,0.0762 0.314074,0.0413 0.860196,0.0896 1.916015,0.18164 l 2.404297,0.21094 0.367188,-0.40039 c 0.119399,-0.1297 0.301388,-0.3179 0.384765,-0.40039 0.110869,-0.10967 0.379469,-0.39222 0.626954,-0.65625 0.243834,-0.26017 0.551057,-0.5846 0.671875,-0.70899 0.127872,-0.13168 0.225245,-0.22936 0.285156,-0.29687 0.02059,-0.0232 0.132384,-0.14094 0.646484,-0.67383 l 0.332031,-0.3457 -0.111328,-0.78907 c -0.04592,-0.32261 -0.149112,-1.03051 -0.228515,-1.57617 -0.03937,-0.27054 -0.07328,-0.52475 -0.09766,-0.71484 -0.01219,-0.0951 -0.02137,-0.1757 -0.02734,-0.23047 -0.003,-0.0274 -0.0049,-0.049 -0.0059,-0.0605 -9.44e-4,-0.0116 0.0055,-0.0464 -0.002,0.0371 l -0.002,0.002 c 0.01069,-0.11574 5.8e-4,-0.11111 -0.0039,-0.1543 -0.0045,-0.0432 -0.01166,-0.0928 -0.01953,-0.15039 -0.01574,-0.11513 -0.03738,-0.25908 -0.0625,-0.4082 l -0.121094,-0.7168 -0.71875,-0.44141 c -0.31237,-0.1916 -0.952485,-0.57309 -1.433594,-0.85351 -0.476117,-0.27749 -1.071913,-0.63074 -1.3125,-0.77735 z m -0.0918,0.9375 0.277344,0.16797 c 0.255284,0.15556 0.84592,0.50526 1.326172,0.78516 0.475266,0.27702 1.119253,0.66053 1.417968,0.84375 l 0.390625,0.24023 0.05664,0.33594 c 0.02378,0.14119 0.04446,0.27944 0.05859,0.38281 0.0071,0.0517 0.01268,0.0947 0.01563,0.12305 0.0025,0.0241 1.49e-4,0.0363 0.0039,-0.01 -0.0084,0.0938 -0.002,0.0827 0,0.10743 0.002,0.0247 0.0063,0.0501 0.0098,0.082 0.007,0.0639 0.01669,0.14776 0.0293,0.24609 0.02522,0.19666 0.05962,0.45369 0.09961,0.72852 0.07932,0.54506 0.183009,1.25447 0.228516,1.57422 l 0.05273,0.3789 -0.04492,0.0469 c -0.514331,0.53313 -0.612245,0.63426 -0.669922,0.69922 0.01323,-0.0149 -0.134286,0.14226 -0.259765,0.27148 -0.132554,0.13647 -0.435138,0.45574 -0.681641,0.71875 -0.242851,0.25909 -0.527539,0.55572 -0.605469,0.63281 -0.105422,0.10431 -0.282721,0.28914 -0.412109,0.42969 l -0.08398,0.0918 -1.988281,-0.17188 c -1.055153,-0.0919 -1.608565,-0.14216 -1.878906,-0.17773 -0.08258,-0.0109 -0.08539,-0.0137 -0.113281,-0.0195 -0.456486,-0.74964 -0.853997,-1.30094 -1.138672,-1.72657 l -1.041016,-1.55664 0.01172,-0.0488 c 0.03424,-0.14696 0.275399,-0.91844 0.910156,-2.84179 0.0869,-0.2633 0.167389,-0.51095 0.226563,-0.70117 0.02474,-0.0795 0.04371,-0.14209 0.06055,-0.19922 0.02393,-0.0117 0.0303,-0.0161 0.06445,-0.0312 0.157421,-0.0697 0.415117,-0.17211 0.769531,-0.30274 0.290074,-0.10691 0.561395,-0.20784 0.763672,-0.28515 0.101139,-0.0387 0.185056,-0.0706 0.248047,-0.0957 0.0315,-0.0125 0.05769,-0.0237 0.08008,-0.0332 0.02239,-0.009 8.91e-4,0.0121 0.09375,-0.0469 -0.07923,0.0503 -0.04274,0.0225 -0.03125,0.0176 0.01149,-0.005 0.03238,-0.013 0.05859,-0.0234 0.05243,-0.0209 0.128936,-0.0509 0.220703,-0.0859 0.183532,-0.0702 0.431673,-0.16203 0.697265,-0.25977 z"
               id="path2" />
          </g>
          <path
             style="color:#000000;fill:#8623c7;fill-opacity:1;stroke:none;-inkscape-stroke:none"
             d="m 95.212891,152.45898 -3.320313,1.5293 1.369141,1.70313 -2.121094,0.59179 1.421875,2.02149 -2.375,0.69336 2.25,3.24218 1.115234,-0.77539 -1.175781,-1.6914 2.386719,-0.69727 -1.40625,-2.00195 2.253906,-0.62891 -1.570312,-1.95117 1.740234,-0.80078 z"
             id="path985" />
        </g>
        <g
           aria-label="4"
           style="font-size:4.10259px;font-family:sans-serif;letter-spacing:0px;word-spacing:0px;fill:#8623c7;fill-opacity:1;stroke:#721ea9;stroke-width:0;stroke-linejoin:round"
           id="text852"
           transform="matrix(1.7226679,0,0,1.7226678,-137.70313,-85.963644)">
          <g
             id="path951"
             style="fill:#8623c7;fill-opacity:1">
            <path
               style="color:#000000;-inkscape-font-specification:'Garuda Bold';fill:#8623c7;fill-opacity:1;stroke:none;stroke-linejoin:miter;-inkscape-stroke:none"
               d="m 142.56244,132.04748 v 2.55131 c 0,1.70003 0.5578,2.86881 1.32636,4.24966 l -1.64608,0.80074 c -1.11493,-1.55 -1.46811,-3.1599 -1.46811,-5.0504 v -2.55131 h -6.3836 c -1.234,0 -1.52266,-1.34111 -0.92154,-2.00473 0,0 6.42857,-8.037 6.5635,-8.1849 0.22564,-0.21706 0.65649,-0.5798 1.29375,-0.5798 0.80839,0 1.21719,0.43301 1.21719,0.88698 v 8.0685 h 2.15954 v 1.81395 z m -1.80638,-8.41528 -5.06168,6.60133 h 5.06168 z"
               id="path3" />
            <path
               style="color:#000000;-inkscape-font-specification:'Garuda Bold';fill:#8623c7;fill-opacity:1;stroke:none;stroke-linejoin:miter;-inkscape-stroke:none"
               d="m 142.56244,132.04748 v 2.55131 c 0,1.70003 0.5578,2.86881 1.32636,4.24966 l -1.64608,0.80074 c -1.11493,-1.55 -1.46811,-3.1599 -1.46811,-5.0504 v -2.55131 h -6.3836 c -1.234,0 -1.52266,-1.34111 -0.92154,-2.00473 0,0 6.42857,-8.037 6.5635,-8.1849 0.22564,-0.21706 0.65649,-0.5798 1.29375,-0.5798 0.80839,0 1.21719,0.43301 1.21719,0.88698 v 8.0685 h 2.15954 v 1.81395 z m -1.80638,-8.41528 -5.06168,6.60133 h 5.06168 z"
               id="path4" />
          </g>
        </g>
      </g>
    </g>
  </g>
</svg>
